<svg width="288" height="1124" viewBox="0 0 288 1124" fill="none" xmlns="http://www.w3.org/2000/svg">
<ellipse cx="213" cy="202" rx="54" ry="55" fill="#97105C"/>
<ellipse cx="174" cy="117.286" rx="15" ry="14.2857" fill="#97105C"/>
<ellipse cx="139.5" cy="86.1429" rx="7.5" ry="7.14286" fill="#97105C"/>
<ellipse cx="228" cy="389.762" rx="5" ry="4.7619" fill="#97105C"/>
<ellipse cx="70" cy="572.762" rx="5" ry="4.7619" fill="#97105C"/>
<ellipse cx="22" cy="173.762" rx="5" ry="4.7619" fill="#97105C"/>
<ellipse cx="110" cy="353" rx="33" ry="32" fill="#97105C"/>
<ellipse cx="92.5" cy="429.97" rx="17.5" ry="16.9697" fill="#97105C"/>
<ellipse cx="29.5" cy="466.273" rx="7.5" ry="7.27273" fill="#97105C"/>
<path d="M105.294 700.666C-13.4681 728.5 0.507235 791.5 0.507236 839.34V1124H288V415.953C245.224 401.222 196.711 443.588 181.558 499.034C160.101 577.55 169.909 685.523 105.294 700.666Z" fill="#97105C"/>
<rect width="288" height="1118" fill="white" fill-opacity="0.7"/>
</svg>
