<svg width="900" height="570" viewBox="0 0 900 570" fill="none" xmlns="http://www.w3.org/2000/svg">
<ellipse cx="474.273" cy="146.51" rx="11.1473" ry="7.48593" fill="#97105C"/>
<ellipse cx="140.214" cy="265.75" rx="8.21382" ry="8.02064" fill="#97105C"/>
<ellipse cx="72.1473" cy="21.9231" rx="11.1473" ry="9.09006" fill="#97105C"/>
<ellipse cx="248.977" cy="98.3865" rx="53.9765" ry="39.5685" fill="#97105C"/>
<ellipse cx="171.896" cy="179.662" rx="23.4681" ry="18.1801" fill="#97105C"/>
<ellipse cx="358.468" cy="303.715" rx="23.4681" ry="18.1801" fill="#97105C"/>
<ellipse cx="103.907" cy="98.3865" rx="12.9074" ry="11.7636" fill="#97105C"/>
<ellipse cx="520.907" cy="219.231" rx="12.9074" ry="11.7636" fill="#97105C"/>
<path d="M328.037 357.788C64.6472 383.082 47.8412 448.364 34.0011 473.193L0 570H900V172.266C766.09 164.882 622.53 192.746 566.782 256.712C527.482 301.807 521.217 339.237 328.037 357.788Z" fill="#97105C"/>
<ellipse cx="707.437" cy="98.9212" rx="54" ry="40.1032" fill="#97105C"/>
<ellipse cx="653.098" cy="31.0131" rx="21.1213" ry="11.7636" fill="#97105C"/>
<ellipse cx="595.014" cy="9.62477" rx="17.0143" ry="9.62477" fill="#97105C"/>
<rect width="900" height="570" fill="white" fill-opacity="0.7"/>
</svg>
